<svg width="177" height="152" viewBox="0 0 177 152" fill="none" xmlns="http://www.w3.org/2000/svg">
<g id="Group 51">
<path id="Rectangle 158" d="M65.2607 68.9638C65.2607 78.9049 73.3196 86.9638 83.2607 86.9638L94.1559 86.9638C96.9173 86.9638 99.1559 84.7252 99.1559 81.9638L99.1559 68.4152C99.1559 62.8924 94.6787 58.4152 89.1559 58.4152L70.2607 58.4152C67.4993 58.4152 65.2607 60.6538 65.2607 63.4152L65.2607 68.9638Z" fill="#FFF1DA"/>
<g id="plane">
<g id="Group">
<path id="Vector" d="M98.3356 84.5876C97.4084 84.8597 96.4974 85.268 95.6589 85.787C93.4761 87.1122 92.1552 88.7912 92.7088 89.5367C93.2624 90.2822 95.4807 89.8118 97.6636 88.4866C98.5121 87.9812 99.2749 87.3735 99.9048 86.7009C100.198 86.3773 100.268 86.009 100.083 85.7618L99.3643 84.7933C99.1814 84.545 98.7777 84.4645 98.3356 84.5876Z" fill="#D5D6DB"/>
<path id="Vector_2" d="M92.9508 68.8639C92.2785 69.0613 91.6178 69.3574 91.0098 69.7338C89.4274 70.6945 88.4691 71.9119 88.8702 72.452C89.2713 72.9921 90.8804 72.6508 92.4626 71.6903C93.0779 71.3237 93.6309 70.8828 94.0878 70.3951C94.3 70.1606 94.3506 69.8938 94.217 69.7145L93.6963 69.0133C93.5639 68.8333 93.2714 68.7747 92.9508 68.8639Z" fill="#D5D6DB"/>
<path id="Vector_3" d="M84.2777 70.404C84.1301 70.4085 83.9701 70.4588 83.8291 70.5449L80.1076 72.8116C79.7964 73.0007 79.6588 73.3101 79.8005 73.5026C79.8329 73.5468 79.8787 73.5823 79.9352 73.6072L88.5803 77.4434L100.989 69.8851L84.2777 70.404Z" fill="#029BC5"/>
<path id="Vector_4" d="M122.347 67.2594L89.2113 85.9169L69.8016 93.6853L59.9882 96.2133L58.998 94.9881L114.202 64.3704C115.848 63.4548 117.659 62.8025 119.452 62.4796C120.238 62.3413 121.009 62.2734 121.749 62.2774C122.405 62.277 123.022 62.3493 123.584 62.4922C124.21 62.6552 125.428 62.5448 125.794 62.9688C125.796 62.9679 126.599 65.0138 122.347 67.2594V67.2594Z" fill="#E1E6E9"/>
<path id="Vector_5" d="M90.1907 85.1138L75.1561 103.872C74.9667 104.133 75.0553 104.391 75.3536 104.448C75.5366 104.482 75.766 104.434 75.9629 104.318L79.6379 102.17C80.3447 101.756 80.978 101.262 81.4986 100.717L110.151 73.0627L90.1907 85.1138Z" fill="#029BC5"/>
<path id="Vector_6" d="M54.1374 84.2622C53.9024 84.2248 53.6166 84.2933 53.37 84.446L50.2743 86.3625C49.8525 86.6235 49.6667 87.05 49.8591 87.3153C49.8958 87.3658 49.9447 87.4081 50.0043 87.4407L58.1359 91.9017L67.2502 86.3441L54.1374 84.2622Z" fill="#029BC5"/>
<path id="Vector_7" d="M61.3201 93.4667L56.5946 98.7211C56.5254 98.7967 56.5358 98.8805 56.6178 98.9081C56.6769 98.928 56.76 98.9137 56.8293 98.8716L59.6643 97.2246C59.6863 97.2119 59.7064 97.1967 59.7233 97.18L66.575 90.4161L61.3201 93.4667Z" fill="#029BC5"/>
<path id="Vector_8" d="M120.961 62.8974C120.189 62.8907 119.383 62.9647 118.563 63.1172C117.718 64.0844 117.154 65.1257 116.927 66.1371C116.904 66.3376 117.1 66.4569 117.366 66.4035C117.448 66.3868 117.532 66.3545 117.607 66.3094L122.877 63.1432C122.291 62.9816 121.645 62.8989 120.961 62.8974Z" fill="#029BC5"/>
<path id="Vector_9" d="M109.682 68.5992L113.223 66.3556L116.186 70.5244L112.645 72.768L109.682 68.5992Z" fill="#D5D6DB"/>
<g id="Group_2">
<path id="Vector_10" d="M107.599 70.0851C107.174 70.355 106.985 70.7916 107.177 71.0602L107.489 71.4952C107.695 71.7544 108.202 71.7384 108.621 71.4594C109.019 71.1938 109.197 70.7824 109.028 70.518L108.716 70.083C108.524 69.8146 108.024 69.8155 107.599 70.0851V70.0851Z" fill="#3A556A"/>
<path id="Vector_11" d="M104.572 71.7004C104.147 71.9704 103.958 72.407 104.151 72.6755L104.462 73.1106C104.669 73.3698 105.176 73.3538 105.594 73.0748C105.993 72.8091 106.171 72.3978 106.002 72.1334L105.69 71.6983C105.497 71.4301 104.997 71.431 104.572 71.7004V71.7004Z" fill="#3A556A"/>
<path id="Vector_12" d="M101.545 73.3163C101.12 73.5865 100.932 74.0225 101.124 74.2908L101.436 74.7258C101.642 74.985 102.149 74.969 102.568 74.6901C102.966 74.4244 103.144 74.013 102.975 73.7487L102.663 73.3136C102.471 73.0451 101.97 73.0463 101.545 73.3163V73.3163Z" fill="#3A556A"/>
<path id="Vector_13" d="M98.5182 74.9317C98.0934 75.2018 97.9051 75.6379 98.0974 75.9062L98.4092 76.3412C98.6158 76.6004 99.1226 76.5844 99.5413 76.3054C99.9397 76.0398 100.118 75.6284 99.9484 75.364L99.6366 74.929C99.444 74.6605 98.9433 74.6618 98.5182 74.9317V74.9317Z" fill="#3A556A"/>
<path id="Vector_14" d="M95.4925 76.5475C95.0674 76.818 94.8789 77.2546 95.0714 77.5233L95.3834 77.9589C95.5758 78.2274 96.0764 78.2262 96.5016 77.9562C96.9268 77.6861 97.1155 77.2495 96.9231 76.981L96.6111 76.5453C96.4193 76.2765 95.9188 76.2772 95.4934 76.5469C95.4931 76.5471 95.4929 76.5473 95.4925 76.5475Z" fill="#3A556A"/>
<path id="Vector_15" d="M92.4662 78.1627C92.041 78.4332 91.8526 78.8698 92.045 79.1385L92.3571 79.5741C92.5494 79.8427 93.05 79.8415 93.4752 79.5714C93.9004 79.3014 94.0891 78.8648 93.8968 78.5962L93.5847 78.1606C93.3929 77.8917 92.8925 77.8924 92.467 78.1621C92.4667 78.1624 92.4663 78.1626 92.4662 78.1627Z" fill="#3A556A"/>
<path id="Vector_16" d="M89.4398 79.7781C89.0147 80.0486 88.8262 80.4852 89.0186 80.7538L89.3307 81.1894C89.5236 81.4576 90.0245 81.4557 90.4492 81.1855C90.8732 80.9157 91.0616 80.48 90.8702 80.2117L90.5581 79.7761C90.3659 79.5073 89.8653 79.5082 89.4398 79.7781Z" fill="#3A556A"/>
<path id="Vector_17" d="M86.4129 81.3933C85.9878 81.6638 85.7993 82.1004 85.9918 82.3691L86.3038 82.8047C86.4967 83.0729 86.9976 83.071 87.4224 82.8007C87.8464 82.5309 88.0347 82.0952 87.8433 81.8269L87.5313 81.3913C87.339 81.1225 86.8384 81.1234 86.4129 81.3933Z" fill="#3A556A"/>
<path id="Vector_18" d="M83.3865 83.0086C82.9614 83.2791 82.773 83.7156 82.9654 83.9843L83.2774 84.4199C83.4703 84.6881 83.9712 84.6862 84.396 84.4159C84.82 84.1461 85.0084 83.7105 84.8169 83.4421L84.5049 83.0065C84.3125 82.7379 83.8119 82.7388 83.3865 83.0086Z" fill="#3A556A"/>
<path id="Vector_19" d="M80.3592 84.6244C79.934 84.8944 79.7453 85.331 79.9377 85.5996L79.9381 85.6002L80.2501 86.0358C80.443 86.304 80.9439 86.3021 81.3686 86.0318C81.7927 85.762 81.981 85.3263 81.7896 85.058L81.4776 84.6224C81.2853 84.3536 80.7847 84.3545 80.3592 84.6244Z" fill="#3A556A"/>
<path id="Vector_20" d="M77.3338 86.2392C76.9086 86.5092 76.7199 86.9458 76.9123 87.2144L76.9127 87.2149L77.2247 87.6505C77.4176 87.9187 77.9185 87.9168 78.3433 87.6466C78.7673 87.3768 78.9557 86.9411 78.7642 86.6728L78.4522 86.2372C78.2598 85.9685 77.7592 85.9694 77.3338 86.2392Z" fill="#3A556A"/>
</g>
</g>
</g>
</g>
</svg>
