<svg width="77" height="70" viewBox="0 0 77 70" fill="none" xmlns="http://www.w3.org/2000/svg">
<g id="Group 49">
<path id="Rectangle 160" d="M27 51.9722C27 61.9133 35.0589 69.9722 45 69.9722L72 69.9722C74.7614 69.9722 77 67.7336 77 64.9722L77 28.0231C77 22.5002 72.5228 18.0231 67 18.0231L32 18.0231C29.2386 18.0231 27 20.2617 27 23.0231L27 51.9722Z" fill="#FFF1DA"/>
<g id="power-supply 1">
<g id="Group">
<path id="Vector" d="M50 29.5242V23.485C50 22.3011 49.0947 21.3414 47.9781 21.3414H45.7994C44.9282 21.3414 44.1553 20.7497 43.8815 19.8729C43.5764 18.8963 43.2058 17.9513 42.7752 17.0438C42.3831 16.2173 42.5332 15.2181 43.1502 14.5639L44.6916 12.9297C45.4813 12.0925 45.4813 10.7353 44.6916 9.89812L40.6637 5.62773C39.874 4.79057 38.5938 4.79057 37.8042 5.62773L36.2628 7.26195C35.6457 7.91619 34.7032 8.07522 33.9236 7.65946C33.0677 7.20297 32.1763 6.81004 31.2551 6.48665C30.4282 6.19632 29.87 5.37687 29.87 4.45331V2.14362C29.87 0.959713 28.9648 0 27.8481 0H22.1517C21.035 0 20.1298 0.959713 20.1298 2.14362V4.45342C20.1298 5.37697 19.5716 6.19643 18.7446 6.48675C17.8234 6.81014 16.9321 7.20307 16.0761 7.65957C15.2966 8.07533 14.3541 7.91619 13.737 7.26205L12.1956 5.62783C11.4059 4.79067 10.1257 4.79067 9.3361 5.62783L5.30833 9.89823C4.51869 10.7354 4.51869 12.0926 5.30833 12.9298L6.84978 14.564C7.46678 15.2182 7.61688 16.2174 7.22473 17.0439C6.79415 17.9514 6.42352 18.8964 6.11849 19.873C5.92493 20.4926 5.48218 20.9698 4.93167 21.1964C4.7032 21.2905 4.55672 21.4481 4.30119 21.4481H2.12252C1.00582 21.4481 0.100586 22.4078 0.100586 23.5917V29.4176C0.100586 30.6015 1.00582 31.5612 2.12252 31.5612H4.30119C5.17232 31.5612 5.94525 32.2596 6.2191 33.1363C6.52413 34.113 6.89475 35.0579 7.32533 35.9654C7.71749 36.7919 7.56739 37.7911 6.95038 38.4454L5.50954 40.0796C4.7199 40.9167 4.7199 42.274 5.50954 43.1111L9.3363 47.1682C10.1259 48.0054 11.4061 48.0054 12.1958 47.1682L13.7372 45.534C14.3542 44.8797 15.2968 44.7207 16.0763 45.1365C16.9323 45.593 18.0248 46.0926 18.9461 46.416C19.773 46.7063 20.3312 47.5257 20.3312 48.4493V50.7591C20.3312 51.943 21.2364 52.9027 22.3531 52.9027H27.7477C28.8644 52.9027 29.7696 51.943 29.7696 50.7591V48.4493C29.7696 48.1784 29.9182 48.0231 30.0069 47.7809C30.2207 47.1972 30.6709 46.7278 31.2552 46.5226C32.1764 46.1992 33.0678 45.8063 33.9237 45.3498C34.7033 44.934 35.6458 45.0932 36.2629 45.7473L37.8043 47.3815C38.5939 48.2187 39.8741 48.2187 40.6638 47.3815L44.6917 43.1111C45.4814 42.274 45.4814 40.9167 44.6917 40.0796L43.1503 38.4454C42.5333 37.7911 42.3832 36.7919 42.7753 35.9654C43.2059 35.058 43.5765 34.113 43.8816 33.1363C44.1554 32.2596 44.9284 31.6679 45.7995 31.6679H47.9781C49.0947 31.6679 50 30.7081 50 29.5242Z" fill="#B6C4CF"/>
<path id="Vector_2" d="M30.007 47.7808C29.9185 48.0229 29.8702 48.2853 29.8702 48.5562V50.8654C29.8702 52.0493 28.9648 53.0092 27.8481 53.0092H22.1519C21.0352 53.0092 20.1298 52.0493 20.1298 50.8654V48.5562C20.1298 47.6325 19.5714 46.8123 18.7445 46.5222C17.8239 46.199 16.9326 45.8065 16.0765 45.35C15.2968 44.9341 14.3541 45.093 13.7374 45.7468L12.1962 47.3808C11.4064 48.2181 10.1258 48.2181 9.33602 47.3808L5.30785 43.1113C4.51911 42.274 4.51911 40.9163 5.30785 40.079L6.8501 38.445C7.4668 37.7912 7.6167 36.7918 7.22435 35.9652C6.79376 35.0575 6.42354 34.1125 6.11871 33.1366C5.84507 32.2598 5.07143 31.6679 4.2002 31.6679H2.02213C0.905433 31.6679 0 30.708 0 29.5241V23.4851C0 22.3011 0.905433 21.3412 2.02213 21.3412H4.2002C4.45573 21.3412 4.70322 21.29 4.93159 21.1962C4.92958 21.3295 4.92857 21.4639 4.92857 21.5983C4.92857 36.0601 15.9869 47.784 29.6278 47.784C29.7545 47.784 29.8813 47.7829 30.007 47.7808Z" fill="#9FACBA"/>
<path id="Vector_3" d="M25 44.1033C34.1677 44.1033 41.5996 36.2241 41.5996 26.5047C41.5996 16.7852 34.1677 8.90601 25 8.90601C15.8323 8.90601 8.40039 16.7852 8.40039 26.5047C8.40039 36.2241 15.8323 44.1033 25 44.1033Z" fill="#9FACBA"/>
<path id="Vector_4" d="M24.9999 40.3702C32.2229 40.3702 38.0783 34.1624 38.0783 26.5046C38.0783 18.8469 32.2229 12.639 24.9999 12.639C17.7768 12.639 11.9214 18.8469 11.9214 26.5046C11.9214 34.1624 17.7768 40.3702 24.9999 40.3702Z" fill="#F8F7F7"/>
</g>
</g>
</g>
</svg>
