<svg width="89" height="79" viewBox="0 0 89 79" fill="none" xmlns="http://www.w3.org/2000/svg">
<g id="Group 48">
<path id="Rectangle 157" d="M88.1313 60.6873C88.1313 70.6284 80.0725 78.6873 70.1313 78.6873L45.4998 78.6873C42.7383 78.6873 40.4998 76.4487 40.4998 73.6873L40.4998 39.2555C40.4998 33.7327 44.9769 29.2555 50.4998 29.2555L83.1314 29.2555C85.8928 29.2555 88.1314 31.4941 88.1314 34.2555L88.1313 60.6873Z" fill="#FFF1DA"/>
<g id="satellite-dish">
<g id="Group">
<path id="Vector" d="M22.9019 51.1037L21.1033 50.1919L10.418 66.9226H22.3429L23.4921 66.1292V51.6764L22.9019 51.1037Z" fill="#407093"/>
<path id="Vector_2" d="M21.2662 50.2743L17.2222 48.2241H16.46L5.0249 66.1291L5.70568 66.9226H10.6337L21.2662 50.2743Z" fill="#365E7D"/>
<path id="Vector_3" d="M25.6388 66.129H9.87032C9.15399 66.129 8.57324 66.7439 8.57324 67.5026V69.2432C8.57324 70.0016 9.15386 70.6165 9.87006 70.6166H25.6388C26.3551 70.6166 26.9358 70.0018 26.9358 69.2432V67.5026C26.9358 66.7439 26.3551 66.129 25.6388 66.129Z" fill="#4A80AA"/>
<path id="Vector_4" d="M8.84169 69.2432V67.5026C8.84169 66.744 9.42244 66.129 10.1388 66.129H1.78634C1.07001 66.129 0.489258 66.7439 0.489258 67.5026V69.2432C0.489258 70.0018 1.07001 70.6166 1.78634 70.6166H10.1386C9.42231 70.6166 8.84169 70.0018 8.84169 69.2432Z" fill="#407093"/>
<path id="Vector_5" d="M20.7231 40.335C20.2377 41.3953 19.9634 42.5842 19.9634 43.8419C19.9634 47.2788 21.9957 50.2107 24.8561 51.3704C26.0841 50.963 27.1753 50.228 28.0372 49.2604V47.5042L20.7231 40.335Z" fill="#4A80AA"/>
<path id="Vector_6" d="M20.0916 43.8695C20.0916 42.6409 20.3599 41.4796 20.8349 40.4442L18.4969 38.1525H17.5483C16.1136 39.5856 15.2168 41.616 15.2168 43.8694C15.2168 48.2104 18.5398 51.7293 22.639 51.7293C23.4929 51.7293 24.3117 51.5742 25.075 51.2929C22.1742 50.2243 20.0916 47.3053 20.0916 43.8695Z" fill="#407093"/>
<path id="Vector_7" d="M63.1839 0.932842C62.0094 -0.310947 60.1051 -0.310947 58.9307 0.932842L56.0605 3.97225V4.35747L59.6429 8.31213L60.3137 8.47626L63.1838 5.43685C64.3584 4.1932 64.3584 2.17663 63.1839 0.932842Z" fill="#FFD086"/>
<path id="Vector_8" d="M63.9773 2.4362C63.852 1.88561 63.5897 1.36275 63.1839 0.932842C62.0094 -0.310947 60.1051 -0.310947 58.9307 0.932842L56.0605 3.97225V4.35747L57.9599 6.45417C59.0922 5.20638 60.2164 3.97501 60.7946 3.36277C61.7584 2.34228 63.166 2.33441 63.9773 2.4362Z" fill="#FFC365"/>
<g id="Group_2">
<path id="Vector_9" d="M53.3583 9.0291C53.3254 9.0291 53.292 9.02731 53.2586 9.02386L20.0913 5.56668C19.5382 5.50903 19.1341 4.98754 19.1885 4.40179C19.2429 3.81603 19.7357 3.38833 20.2885 3.44557L53.4558 6.9026C54.0088 6.96026 54.413 7.48174 54.3586 8.0675C54.3074 8.61795 53.8697 9.0291 53.3583 9.0291Z" fill="#365E7D"/>
</g>
<g id="Group_3">
<path id="Vector_10" d="M29.6836 15.6043C29.2372 15.6043 28.8294 15.2874 28.7109 14.8088C28.5699 14.2395 28.8914 13.6569 29.4289 13.5075L53.1019 6.93202C53.6394 6.78293 54.1897 7.12318 54.3306 7.69253C54.4717 8.26174 54.1502 8.84432 53.6126 8.9937L29.9396 15.5692C29.8539 15.5929 29.768 15.6043 29.6836 15.6043Z" fill="#407093"/>
</g>
<g id="Group_4">
<path id="Vector_11" d="M59.7877 47.5513C59.2759 47.5513 58.8382 47.1397 58.7873 46.5891L55.5429 11.4445C55.4889 10.8588 55.8934 10.3375 56.4465 10.2801C56.9997 10.2255 57.4919 10.6514 57.5459 11.2372L60.7903 46.3818C60.8443 46.9675 60.4398 47.4888 59.8866 47.5462C59.8534 47.5495 59.8203 47.5513 59.7877 47.5513Z" fill="#365E7D"/>
</g>
<g id="Group_5">
<path id="Vector_12" d="M50.2411 37.5756C50.1558 37.5756 50.069 37.5639 49.9825 37.5398C49.4453 37.3889 49.1253 36.8055 49.2678 36.2365L55.5685 11.0707C55.7109 10.5016 56.2616 10.1633 56.799 10.3136C57.3363 10.4645 57.6563 11.0479 57.5138 11.6169L51.2131 36.7827C51.0936 37.2602 50.6864 37.5756 50.2411 37.5756Z" fill="#407093"/>
</g>
<path id="Vector_13" d="M53.1763 7.02563L56.0537 3.97849L60.3063 8.48188L57.4288 11.529L53.1763 7.02563Z" fill="#FFC365"/>
<path id="Vector_14" d="M55.3616 9.32716C56.0532 8.56031 57.1331 7.36424 58.1777 6.21424L56.0606 3.97217L53.1826 7.01971L55.3616 9.32716Z" fill="#FFA90F"/>
<g id="Group_6">
<path id="Vector_15" d="M58.0768 13.2678C57.8193 13.2678 57.5617 13.1637 57.3653 12.9557L51.8309 7.09508C51.4379 6.67883 51.4379 6.00425 51.8309 5.58786C52.2239 5.17189 52.861 5.17189 53.2541 5.58786L58.7885 11.4485C59.1815 11.8647 59.1815 12.5393 58.7885 12.9557C58.5919 13.1638 58.3345 13.2678 58.0768 13.2678Z" fill="#4A80AA"/>
</g>
<path id="Vector_16" d="M58.7265 49.4696L25.0312 13.4777C20.5639 24.1576 19.7881 35.6224 23.1325 45.5089C32.3688 54.3318 46.166 55.6866 58.8677 50.1405L58.7265 49.4696Z" fill="#B5DCFF"/>
<g id="Group_7">
<path id="Vector_17" d="M25.2104 13.6694L17.4903 5.4231L16.7166 5.50392C11.2774 19.4732 12.8656 34.6948 22.0839 44.4567C22.6422 45.0479 23.22 45.609 23.8148 46.1413C19.9289 36.2665 20.5605 24.5218 25.2104 13.6694Z" fill="#8BCAFF"/>
</g>
<path id="Vector_18" d="M61.8059 46.9114L27.6316 10.7218C27.2954 10.7767 26.9716 10.9386 26.7127 11.2128L25.2262 12.7871C24.907 13.1251 24.7482 13.5666 24.7437 14.0097L58.8095 50.0845C59.3161 50.6208 60.1372 50.6208 60.6437 50.0845L61.806 48.8538C62.3124 48.3175 62.3124 47.4478 61.8059 46.9114Z" fill="#DBEDFF"/>
<path id="Vector_19" d="M25.2772 12.8139L26.7327 11.2727C27.0007 10.9888 27.3392 10.8263 27.6885 10.7823L19.7661 2.39277C19.2596 1.85638 18.4385 1.85638 17.9318 2.39277L16.7695 3.62359C16.263 4.15997 16.263 5.02958 16.7695 5.56596L24.8033 14.0735C24.7927 13.6189 24.9497 13.1608 25.2772 12.8139Z" fill="#B5DCFF"/>
</g>
</g>
</g>
</svg>
