<svg width="18" height="16" viewBox="0 0 18 16" fill="none" xmlns="http://www.w3.org/2000/svg">
<g id="instagram 1" clip-path="url(#clip0_302_127)">
<g id="Group">
<g id="Group_2">
<path id="Vector" d="M14.632 0H2.72477C1.36466 0 0.257812 1.05156 0.257812 2.34375V13.6562C0.257812 14.9488 1.36466 16 2.72477 16H14.632C15.9924 16 17.0989 14.9488 17.0989 13.6562V2.34375C17.0989 1.05156 15.9924 0 14.632 0ZM16.1121 13.6562C16.1121 14.4316 15.448 15.0625 14.632 15.0625H2.72477C1.9087 15.0625 1.2446 14.4316 1.2446 13.6562V2.34375C1.2446 1.56844 1.9087 0.9375 2.72477 0.9375H14.632C15.448 0.9375 16.1121 1.56844 16.1121 2.34375V13.6562Z" fill="white"/>
</g>
<g id="Group_3">
<path id="Vector_2" d="M14.1059 1.90625C13.5619 1.90625 13.1191 2.32687 13.1191 2.84375C13.1191 3.36063 13.5619 3.78125 14.1059 3.78125C14.65 3.78125 15.0927 3.36063 15.0927 2.84375C15.0927 2.32687 14.65 1.90625 14.1059 1.90625Z" fill="white"/>
</g>
<g id="Group_4">
<path id="Vector_3" d="M8.67832 3.78125C6.22978 3.78125 4.23779 5.67375 4.23779 8C4.23779 10.3263 6.22978 12.2188 8.67832 12.2188C11.1269 12.2188 13.1189 10.3263 13.1189 8C13.1189 5.67375 11.1269 3.78125 8.67832 3.78125ZM8.67832 11.2812C6.77383 11.2812 5.22458 9.80938 5.22458 8C5.22458 6.19062 6.77383 4.71875 8.67832 4.71875C10.5828 4.71875 12.1321 6.19062 12.1321 8C12.1321 9.80938 10.5828 11.2812 8.67832 11.2812Z" fill="white"/>
</g>
</g>
</g>
<defs>
<clipPath id="clip0_302_127">
<rect width="16.8411" height="16" fill="white" transform="translate(0.257812)"/>
</clipPath>
</defs>
</svg>
