<svg width="20" height="20" viewBox="0 0 20 20" fill="none" xmlns="http://www.w3.org/2000/svg">
<g id="navigation 1">
<g id="Navigation">
<path id="Vector" d="M18.0681 2.76033L11.1931 17.7603C11.1356 17.886 11.038 17.989 10.9157 18.0533C10.7934 18.1177 10.6532 18.1396 10.5171 18.1158C10.381 18.092 10.2566 18.0237 10.1634 17.9217C10.0702 17.8197 10.0134 17.6896 10.002 17.5519L9.42071 10.579L2.44777 9.99771C2.31005 9.98627 2.18001 9.92951 2.07798 9.8363C1.97595 9.7431 1.90769 9.61871 1.88387 9.48258C1.86005 9.34646 1.88201 9.20628 1.94633 9.08397C2.01064 8.96166 2.11368 8.86411 2.23933 8.80658L17.2393 1.93158C17.3553 1.87844 17.4847 1.86205 17.6103 1.88461C17.7358 1.90718 17.8515 1.96762 17.9417 2.05781C18.0319 2.14801 18.0923 2.26365 18.1149 2.38919C18.1374 2.51474 18.121 2.64418 18.0679 2.76014L18.0681 2.76033Z" fill="#080809"/>
</g>
</g>
</svg>
