<svg width="64" height="61" viewBox="0 0 64 61" fill="none" xmlns="http://www.w3.org/2000/svg">
<g id="Social">
<g id="Background" filter="url(#filter0_d_302_119)">
<path fill-rule="evenodd" clip-rule="evenodd" d="M31.7271 49C43.6441 49 53.3048 39.8218 53.3048 28.5C53.3048 17.1782 43.6441 8 31.7271 8C19.8101 8 10.1494 17.1782 10.1494 28.5C10.1494 39.8218 19.8101 49 31.7271 49Z" fill="white"/>
</g>
<path id="Vector" d="M39.6214 23.539C38.9951 23.8 38.3278 23.973 37.632 24.057C38.3478 23.651 38.8941 23.013 39.1509 22.244C38.4836 22.622 37.7468 22.889 36.9616 23.038C36.3279 22.397 35.4248 22 34.4396 22C32.5281 22 30.9893 23.474 30.9893 25.281C30.9893 25.541 31.0124 25.791 31.0693 26.029C28.1989 25.896 25.6591 24.589 23.9528 22.598C23.655 23.089 23.4802 23.651 23.4802 24.256C23.4802 25.392 24.096 26.399 25.0138 26.982C24.4591 26.972 23.9149 26.819 23.4539 26.578C23.4539 26.588 23.4539 26.601 23.4539 26.614C23.4539 28.208 24.6507 29.532 26.2201 29.837C25.939 29.91 25.6327 29.945 25.3149 29.945C25.0938 29.945 24.8707 29.933 24.6612 29.889C25.1086 31.188 26.378 32.143 27.8873 32.174C26.7127 33.047 25.2212 33.573 23.6065 33.573C23.3234 33.573 23.0518 33.561 22.7803 33.528C24.3097 34.465 26.1222 35 28.0768 35C34.4301 35 37.9036 30 37.9036 25.666C37.9036 25.521 37.8983 25.381 37.891 25.242C38.5762 24.78 39.1519 24.203 39.6214 23.539Z" fill="#080809"/>
</g>
<defs>
<filter id="filter0_d_302_119" x="0.149414" y="0" width="63.1553" height="61" filterUnits="userSpaceOnUse" color-interpolation-filters="sRGB">
<feFlood flood-opacity="0" result="BackgroundImageFix"/>
<feColorMatrix in="SourceAlpha" type="matrix" values="0 0 0 0 0 0 0 0 0 0 0 0 0 0 0 0 0 0 127 0" result="hardAlpha"/>
<feOffset dy="2"/>
<feGaussianBlur stdDeviation="5"/>
<feColorMatrix type="matrix" values="0 0 0 0 0 0 0 0 0 0 0 0 0 0 0 0 0 0 0.1 0"/>
<feBlend mode="normal" in2="BackgroundImageFix" result="effect1_dropShadow_302_119"/>
<feBlend mode="normal" in="SourceGraphic" in2="effect1_dropShadow_302_119" result="shape"/>
</filter>
</defs>
</svg>
